<mxfile host="app.diagrams.net" modified="2021-05-11T12:45:56.183Z" agent="5.0 (Windows NT 10.0; Win64; x64) AppleWebKit/537.36 (KHTML, like Gecko) Chrome/90.0.4430.93 Safari/537.36" etag="jggmIePDbVbnR8yPll92" version="14.6.11" type="github">
  <diagram id="Eu6nOUOcpOGfrcl_d5k7" name="Page-1">
    <mxGraphModel dx="1038" dy="485" grid="1" gridSize="10" guides="1" tooltips="1" connect="1" arrows="1" fold="1" page="1" pageScale="1" pageWidth="827" pageHeight="1169" math="0" shadow="0">
      <root>
        <mxCell id="0" />
        <mxCell id="1" parent="0" />
        <mxCell id="IQw8xycDKLjuN-9eKdzt-23" value="&lt;font style=&quot;font-size: 18px&quot;&gt;1&lt;/font&gt;" style="text;html=1;resizable=0;autosize=1;align=center;verticalAlign=middle;points=[];fillColor=none;strokeColor=none;rounded=0;" parent="1" vertex="1">
          <mxGeometry x="180" y="215" width="30" height="20" as="geometry" />
        </mxCell>
        <mxCell id="IQw8xycDKLjuN-9eKdzt-26" value="&lt;font style=&quot;font-size: 18px&quot;&gt;n&lt;/font&gt;" style="text;html=1;resizable=0;autosize=1;align=center;verticalAlign=middle;points=[];fillColor=none;strokeColor=none;rounded=0;" parent="1" vertex="1">
          <mxGeometry x="330" y="215" width="30" height="20" as="geometry" />
        </mxCell>
        <mxCell id="5WTDee-ewbqKjF5mnnKF-1" value="" style="group;rotation=90;" vertex="1" connectable="0" parent="1">
          <mxGeometry x="220" y="217.5" width="90" height="55" as="geometry" />
        </mxCell>
        <mxCell id="IQw8xycDKLjuN-9eKdzt-5" value="" style="rhombus;whiteSpace=wrap;html=1;" parent="5WTDee-ewbqKjF5mnnKF-1" vertex="1">
          <mxGeometry width="90" height="55" as="geometry" />
        </mxCell>
        <mxCell id="IQw8xycDKLjuN-9eKdzt-21" value="&lt;span style=&quot;font-size: 18px&quot;&gt;属于&lt;/span&gt;" style="text;html=1;resizable=0;autosize=1;align=center;verticalAlign=middle;points=[];fillColor=none;strokeColor=none;rounded=0;" parent="5WTDee-ewbqKjF5mnnKF-1" vertex="1">
          <mxGeometry x="20" y="17.5" width="50" height="20" as="geometry" />
        </mxCell>
        <mxCell id="5WTDee-ewbqKjF5mnnKF-2" value="" style="group" vertex="1" connectable="0" parent="1">
          <mxGeometry x="50" y="215" width="120" height="60" as="geometry" />
        </mxCell>
        <mxCell id="IQw8xycDKLjuN-9eKdzt-6" value="" style="rounded=0;whiteSpace=wrap;html=1;" parent="5WTDee-ewbqKjF5mnnKF-2" vertex="1">
          <mxGeometry width="120" height="60" as="geometry" />
        </mxCell>
        <mxCell id="IQw8xycDKLjuN-9eKdzt-14" value="&lt;span style=&quot;font-size: 18px&quot;&gt;教师&lt;/span&gt;" style="text;html=1;resizable=0;autosize=1;align=center;verticalAlign=middle;points=[];fillColor=none;strokeColor=none;rounded=0;" parent="5WTDee-ewbqKjF5mnnKF-2" vertex="1">
          <mxGeometry x="29" y="20" width="50" height="20" as="geometry" />
        </mxCell>
        <mxCell id="5WTDee-ewbqKjF5mnnKF-3" value="" style="group" vertex="1" connectable="0" parent="1">
          <mxGeometry x="380" y="215" width="120" height="60" as="geometry" />
        </mxCell>
        <mxCell id="IQw8xycDKLjuN-9eKdzt-7" value="" style="rounded=0;whiteSpace=wrap;html=1;" parent="5WTDee-ewbqKjF5mnnKF-3" vertex="1">
          <mxGeometry width="120" height="60" as="geometry" />
        </mxCell>
        <mxCell id="IQw8xycDKLjuN-9eKdzt-16" value="&lt;span style=&quot;font-size: 18px&quot;&gt;项目成果&lt;/span&gt;" style="text;html=1;resizable=0;autosize=1;align=center;verticalAlign=middle;points=[];fillColor=none;strokeColor=none;rounded=0;" parent="5WTDee-ewbqKjF5mnnKF-3" vertex="1">
          <mxGeometry x="15" y="20" width="90" height="20" as="geometry" />
        </mxCell>
        <mxCell id="5WTDee-ewbqKjF5mnnKF-5" value="" style="endArrow=none;html=1;entryX=0;entryY=0.5;entryDx=0;entryDy=0;exitX=1;exitY=0.5;exitDx=0;exitDy=0;" edge="1" parent="1" source="IQw8xycDKLjuN-9eKdzt-5" target="IQw8xycDKLjuN-9eKdzt-7">
          <mxGeometry width="50" height="50" relative="1" as="geometry">
            <mxPoint x="390" y="280" as="sourcePoint" />
            <mxPoint x="440" y="230" as="targetPoint" />
          </mxGeometry>
        </mxCell>
        <mxCell id="5WTDee-ewbqKjF5mnnKF-6" value="" style="endArrow=none;html=1;entryX=1;entryY=0.5;entryDx=0;entryDy=0;exitX=0;exitY=0.5;exitDx=0;exitDy=0;" edge="1" parent="1" source="IQw8xycDKLjuN-9eKdzt-5" target="IQw8xycDKLjuN-9eKdzt-6">
          <mxGeometry width="50" height="50" relative="1" as="geometry">
            <mxPoint x="390" y="280" as="sourcePoint" />
            <mxPoint x="330" y="230" as="targetPoint" />
          </mxGeometry>
        </mxCell>
        <mxCell id="5WTDee-ewbqKjF5mnnKF-8" value="" style="group" vertex="1" connectable="0" parent="1">
          <mxGeometry x="690" y="212.5" width="120" height="60" as="geometry" />
        </mxCell>
        <mxCell id="5WTDee-ewbqKjF5mnnKF-9" value="" style="rounded=0;whiteSpace=wrap;html=1;" vertex="1" parent="5WTDee-ewbqKjF5mnnKF-8">
          <mxGeometry width="120" height="60" as="geometry" />
        </mxCell>
        <mxCell id="5WTDee-ewbqKjF5mnnKF-10" value="&lt;span style=&quot;font-size: 18px&quot;&gt;科研小组&lt;/span&gt;" style="text;html=1;resizable=0;autosize=1;align=center;verticalAlign=middle;points=[];fillColor=none;strokeColor=none;rounded=0;" vertex="1" parent="5WTDee-ewbqKjF5mnnKF-8">
          <mxGeometry x="9" y="20" width="90" height="20" as="geometry" />
        </mxCell>
        <mxCell id="5WTDee-ewbqKjF5mnnKF-11" value="" style="group;rotation=90;" vertex="1" connectable="0" parent="1">
          <mxGeometry x="550" y="215" width="90" height="55" as="geometry" />
        </mxCell>
        <mxCell id="5WTDee-ewbqKjF5mnnKF-12" value="" style="rhombus;whiteSpace=wrap;html=1;" vertex="1" parent="5WTDee-ewbqKjF5mnnKF-11">
          <mxGeometry width="90" height="55" as="geometry" />
        </mxCell>
        <mxCell id="5WTDee-ewbqKjF5mnnKF-13" value="&lt;span style=&quot;font-size: 18px&quot;&gt;属于&lt;/span&gt;" style="text;html=1;resizable=0;autosize=1;align=center;verticalAlign=middle;points=[];fillColor=none;strokeColor=none;rounded=0;" vertex="1" parent="5WTDee-ewbqKjF5mnnKF-11">
          <mxGeometry x="20" y="17.5" width="50" height="20" as="geometry" />
        </mxCell>
        <mxCell id="5WTDee-ewbqKjF5mnnKF-14" value="" style="endArrow=none;html=1;entryX=0;entryY=0.5;entryDx=0;entryDy=0;" edge="1" parent="1" target="5WTDee-ewbqKjF5mnnKF-12">
          <mxGeometry width="50" height="50" relative="1" as="geometry">
            <mxPoint x="501" y="243" as="sourcePoint" />
            <mxPoint x="510" y="230" as="targetPoint" />
          </mxGeometry>
        </mxCell>
        <mxCell id="5WTDee-ewbqKjF5mnnKF-15" value="" style="endArrow=none;html=1;entryX=1;entryY=0.5;entryDx=0;entryDy=0;exitX=0;exitY=0.5;exitDx=0;exitDy=0;" edge="1" parent="1" source="5WTDee-ewbqKjF5mnnKF-9" target="5WTDee-ewbqKjF5mnnKF-12">
          <mxGeometry width="50" height="50" relative="1" as="geometry">
            <mxPoint x="460" y="280" as="sourcePoint" />
            <mxPoint x="510" y="230" as="targetPoint" />
          </mxGeometry>
        </mxCell>
        <mxCell id="5WTDee-ewbqKjF5mnnKF-16" value="&lt;font style=&quot;font-size: 18px&quot;&gt;1&lt;/font&gt;" style="text;html=1;resizable=0;autosize=1;align=center;verticalAlign=middle;points=[];fillColor=none;strokeColor=none;rounded=0;" vertex="1" parent="1">
          <mxGeometry x="650" y="215" width="30" height="20" as="geometry" />
        </mxCell>
        <mxCell id="5WTDee-ewbqKjF5mnnKF-17" value="&lt;font style=&quot;font-size: 18px&quot;&gt;n&lt;/font&gt;" style="text;html=1;resizable=0;autosize=1;align=center;verticalAlign=middle;points=[];fillColor=none;strokeColor=none;rounded=0;" vertex="1" parent="1">
          <mxGeometry x="510" y="212.5" width="30" height="20" as="geometry" />
        </mxCell>
      </root>
    </mxGraphModel>
  </diagram>
</mxfile>
